<?xml version="1.0" standalone="no"?>
<!DOCTYPE svg PUBLIC "-//W3C//DTD SVG 20010904//EN"
 "http://www.w3.org/TR/2001/REC-SVG-20010904/DTD/svg10.dtd">
<svg version="1.0" xmlns="http://www.w3.org/2000/svg"
 width="500.000000pt" height="500.000000pt" viewBox="0 0 500.000000 500.000000"
 preserveAspectRatio="xMidYMid meet">
<metadata>
Created by potrace 1.11, written by Peter Selinger 2001-2013
</metadata>
<g transform="translate(0.000000,500.000000) scale(0.100000,-0.100000)"
fill="#000000" stroke="none">
<path d="M2110 4496 c0 -2 8 -10 18 -17 15 -13 16 -12 3 4 -13 16 -21 21 -21
13z"/>
<path d="M2396 4447 c3 -10 9 -15 12 -12 3 3 0 11 -7 18 -10 9 -11 8 -5 -6z"/>
<path d="M2286 4418 c3 -5 10 -6 15 -3 13 9 11 12 -6 12 -8 0 -12 -4 -9 -9z"/>
<path d="M2453 4415 c0 -8 4 -12 9 -9 5 3 6 10 3 15 -9 13 -12 11 -12 -6z"/>
<path d="M2653 4409 c-2 -23 3 -25 10 -4 4 8 3 16 -1 19 -4 3 -9 -4 -9 -15z"/>
<path d="M1956 4402 c-3 -5 1 -9 9 -9 8 0 12 4 9 9 -3 4 -7 8 -9 8 -2 0 -6 -4
-9 -8z"/>
<path d="M2136 4381 c-3 -5 2 -15 12 -22 15 -12 16 -12 5 2 -7 9 -10 19 -6 22
3 4 4 7 0 7 -3 0 -8 -4 -11 -9z"/>
<path d="M2553 4383 c4 -3 1 -13 -6 -22 -11 -14 -10 -14 5 -2 16 12 16 31 1
31 -4 0 -3 -3 0 -7z"/>
<path d="M2935 4380 c-3 -5 -1 -10 4 -10 6 0 11 5 11 10 0 6 -2 10 -4 10 -3 0
-8 -4 -11 -10z"/>
<path d="M2284 4358 l-19 -23 23 19 c21 18 27 26 19 26 -2 0 -12 -10 -23 -22z"/>
<path d="M2655 4371 c-3 -5 -2 -12 3 -15 5 -3 9 1 9 9 0 17 -3 19 -12 6z"/>
<path d="M2333 4355 c0 -8 4 -12 9 -9 5 3 6 10 3 15 -9 13 -12 11 -12 -6z"/>
<path d="M2799 4360 c-3 -20 -4 -25 -13 -40 -7 -12 -6 -13 4 -3 13 12 25 53
15 53 -3 0 -6 -4 -6 -10z"/>
<path d="M2515 4351 c-3 -5 -2 -12 3 -15 5 -3 9 1 9 9 0 17 -3 19 -12 6z"/>
<path d="M2710 4356 c0 -2 8 -10 18 -17 15 -13 16 -12 3 4 -13 16 -21 21 -21
13z"/>
<path d="M2761 4336 c-6 -7 -9 -21 -5 -30 5 -12 2 -15 -10 -10 -9 3 -13 11 -9
18 4 7 2 8 -5 1 -6 -5 -37 -8 -68 -6 -37 2 -52 6 -43 12 10 6 8 8 -8 6 -12 0
-19 -5 -17 -9 3 -4 -6 -8 -20 -8 -15 0 -26 7 -29 18 -4 16 -5 16 -6 0 -1 -12
-9 -18 -26 -18 -14 0 -25 4 -25 9 0 5 -10 11 -22 14 -22 6 -22 6 -4 -8 18 -14
15 -15 -35 -15 -30 0 -70 -2 -89 -5 -19 -3 -51 -7 -70 -9 -19 -3 -48 -7 -65
-11 -16 -3 -43 -8 -60 -11 -16 -3 -52 -12 -79 -20 -45 -13 -51 -12 -70 4 -17
14 -19 14 -8 0 8 -10 9 -19 3 -22 -5 -3 -12 0 -14 6 -3 7 -6 4 -6 -7 -1 -19
-3 -18 -22 5 -17 21 -19 22 -10 3 9 -18 8 -23 -9 -28 -11 -3 -25 -3 -31 1 -8
5 -9 3 -4 -6 6 -9 2 -10 -16 -5 -13 4 -21 4 -16 -1 4 -4 -16 -18 -45 -30 -49
-21 -54 -22 -67 -6 -12 15 -12 14 -6 -7 5 -16 4 -21 -4 -17 -6 4 -11 2 -11 -4
0 -6 -4 -8 -10 -5 -5 3 -10 2 -10 -2 0 -9 -59 -37 -72 -34 -5 0 -8 -3 -8 -8 0
-5 -11 -12 -25 -15 -14 -4 -25 -10 -25 -15 0 -5 -15 -15 -32 -22 -18 -7 -44
-24 -58 -36 -14 -13 -37 -29 -52 -36 -16 -6 -28 -16 -28 -20 0 -5 -4 -5 -10
-2 -5 3 -10 2 -10 -3 0 -13 -99 -88 -111 -85 -5 2 -8 -1 -6 -6 1 -4 -33 -43
-75 -85 -43 -42 -78 -82 -78 -89 0 -8 -4 -6 -10 3 -8 13 -10 12 -10 -4 0 -21
-94 -138 -104 -129 -3 4 -6 -2 -6 -13 0 -11 -9 -26 -19 -34 -11 -7 -18 -17
-15 -22 3 -4 0 -8 -6 -8 -6 0 -8 -4 -5 -10 3 -5 2 -10 -3 -10 -5 0 -12 -9 -15
-21 -4 -13 -10 -18 -18 -13 -7 4 -10 3 -5 -4 6 -10 -49 -131 -65 -142 -4 -3
-11 -19 -15 -35 -3 -17 -13 -37 -20 -45 -7 -8 -13 -17 -12 -20 0 -22 -17 -62
-31 -70 -9 -5 -11 -10 -4 -10 9 0 10 -7 4 -22 -17 -41 -24 -63 -25 -71 -1 -4
-8 -12 -16 -17 -10 -6 -11 -10 -3 -10 17 0 6 -61 -14 -76 -10 -9 -11 -13 -2
-16 10 -3 9 -8 0 -24 -12 -19 -12 -19 -6 1 5 16 4 17 -6 8 -9 -9 -9 -16 -2
-25 14 -17 5 -80 -11 -71 -6 4 -5 0 2 -9 15 -18 1 -34 -20 -23 -7 4 -5 0 5 -8
23 -19 20 -90 -3 -81 -12 4 -13 3 -2 -7 15 -16 18 -224 2 -214 -5 3 -3 -7 5
-22 13 -25 13 -29 -3 -35 -15 -6 -15 -7 3 -8 11 -1 14 -4 7 -7 -6 -2 -9 -10
-5 -16 4 -7 9 -21 10 -32 2 -11 5 -31 8 -43 4 -15 2 -21 -5 -17 -5 3 -10 2
-10 -4 0 -5 5 -11 11 -13 5 -2 11 -22 12 -45 1 -22 5 -39 10 -36 4 2 7 -1 7
-6 0 -6 -5 -11 -12 -11 -6 0 -3 -7 8 -15 10 -8 15 -15 11 -15 -4 0 -3 -9 3
-20 15 -27 3 -45 -18 -28 -14 11 -14 9 1 -8 9 -11 14 -24 10 -29 -5 -4 -2 -5
5 -1 7 4 9 12 6 18 -4 6 -2 8 4 5 5 -4 9 -18 7 -32 -1 -14 2 -25 6 -25 5 0 9
-6 9 -13 0 -7 9 -33 21 -56 17 -36 18 -45 7 -52 -10 -7 -9 -9 5 -9 16 0 21
-13 20 -48 -1 -7 2 -11 5 -7 9 8 63 -108 57 -123 -3 -7 -1 -11 4 -8 7 5 63
-78 80 -119 2 -5 12 -18 23 -29 10 -11 16 -26 13 -34 -2 -7 0 -10 5 -7 6 4 18
-7 28 -24 9 -17 20 -31 25 -31 4 0 7 -5 7 -11 0 -5 -6 -7 -12 -3 -8 4 -10 3
-5 -2 5 -5 12 -9 17 -9 5 0 18 -11 30 -25 20 -23 20 -25 3 -32 -15 -7 -14 -8
4 -4 15 2 32 -8 58 -36 31 -34 34 -42 23 -56 -12 -15 -11 -16 4 -3 15 11 21 9
48 -15 16 -16 30 -35 30 -42 0 -7 4 -11 9 -8 12 8 33 -19 23 -29 -4 -5 -2 -5
5 -1 15 8 54 -24 46 -37 -3 -6 -2 -7 4 -4 14 9 55 -22 47 -35 -4 -7 -2 -8 4
-4 19 11 52 -16 47 -39 -3 -11 -2 -14 1 -7 6 13 34 17 34 4 0 -4 10 -12 23
-17 15 -7 21 -18 20 -33 -2 -12 2 -22 7 -22 6 0 9 3 7 8 -3 11 6 14 25 7 10
-4 15 -12 11 -18 -3 -5 -1 -7 5 -4 13 9 44 -2 37 -13 -3 -4 1 -7 8 -7 19 2 97
-34 97 -45 0 -5 4 -6 10 -3 5 3 10 -1 10 -9 0 -8 4 -18 10 -21 6 -3 7 1 4 10
-5 11 -2 14 10 9 20 -8 20 -13 1 -34 -13 -14 -13 -17 0 -17 8 0 11 5 8 10 -4
6 0 8 10 4 11 -4 14 -2 10 9 -3 7 0 14 6 14 6 0 11 -5 11 -12 0 -6 3 -8 7 -5
3 4 12 2 20 -4 7 -6 13 -9 13 -5 0 4 13 0 30 -9 16 -8 33 -16 37 -16 5 0 7 -8
5 -17 -3 -14 -1 -13 12 3 14 19 15 19 22 2 5 -15 9 -16 15 -5 7 10 9 10 9 1 0
-7 12 -13 26 -13 14 0 23 -4 19 -10 -3 -5 -1 -10 4 -10 6 0 11 4 11 9 0 5 9 7
20 4 11 -3 20 -9 20 -13 0 -5 9 -6 20 -3 12 3 20 0 20 -6 0 -7 5 -9 10 -6 15
9 12 -6 -5 -25 -13 -14 -12 -16 5 -16 10 0 17 3 14 7 -2 4 -2 14 1 21 7 18 65
11 65 -8 0 -7 4 -15 9 -18 5 -4 7 4 4 16 -3 13 -1 19 4 13 4 -5 24 -11 43 -12
90 -4 110 -8 110 -17 0 -6 5 -4 10 4 8 12 10 12 10 -5 0 -13 3 -16 8 -8 10 15
92 15 92 -1 0 -7 3 -8 8 -1 4 6 24 12 46 14 30 2 36 0 30 -11 -6 -10 -5 -11 7
-2 8 6 31 11 52 10 20 -1 37 1 37 4 0 3 14 6 30 5 28 0 35 -6 31 -28 -1 -5 3
-6 8 -2 6 3 7 13 4 22 -5 13 -1 15 20 11 15 -3 28 0 30 6 2 7 12 7 32 -2 15
-7 30 -10 33 -7 3 3 0 5 -6 5 -27 0 -10 15 18 16 16 1 27 -2 25 -6 -3 -5 -1
-12 5 -15 6 -4 10 -3 9 2 -4 21 3 31 19 28 9 -1 22 1 27 5 6 4 28 11 50 15 37
8 45 10 78 18 6 2 26 9 42 16 53 21 56 21 50 8 -4 -6 -1 -5 7 4 12 14 56 32
83 33 6 1 18 9 28 19 18 18 20 18 38 1 14 -13 23 -14 30 -7 8 8 7 11 -4 10 -9
-1 -15 2 -14 8 1 5 5 9 10 8 4 -2 7 3 7 10 0 8 4 7 10 -3 8 -13 10 -13 10 1 0
18 26 33 41 23 5 -3 9 -1 9 5 0 6 13 17 29 25 22 12 31 12 40 3 10 -9 11 -8 6
4 -4 10 3 22 19 33 15 9 26 14 26 11 0 -4 7 0 15 7 36 33 45 38 45 28 0 -5 5
-10 11 -10 5 0 8 4 5 9 -3 4 8 21 25 36 23 19 34 24 39 15 5 -8 10 -3 14 14 4
17 13 26 27 26 11 0 18 4 15 8 -3 5 4 15 15 23 12 8 40 33 64 56 24 23 46 39
49 36 3 -4 6 1 6 11 0 10 5 14 11 11 6 -4 8 -14 5 -22 -3 -8 -1 -11 5 -8 5 4
7 15 4 26 -5 13 3 30 23 54 17 18 32 31 35 29 3 -3 8 4 12 15 3 12 13 21 21
21 9 0 12 5 8 12 -5 8 -2 9 11 4 15 -5 16 -4 5 9 -7 8 -8 15 -2 15 5 0 27 25
47 55 21 30 42 52 46 49 5 -3 6 3 2 12 -5 14 -3 16 12 11 16 -7 16 -5 4 10
-12 15 -12 16 5 10 16 -6 17 -5 6 8 -10 12 -8 16 11 24 13 5 18 10 11 10 -7 1
-10 6 -7 11 4 6 10 8 15 5 5 -3 12 0 16 6 4 8 3 9 -4 5 -7 -4 -12 -2 -12 3 0
6 5 11 11 11 5 0 7 4 4 10 -3 5 -1 10 5 10 6 0 9 4 5 10 -7 11 32 53 44 46 4
-3 8 1 8 9 0 11 -4 12 -14 4 -18 -15 -17 -10 9 42 12 24 21 48 20 53 -2 5 8 6
22 4 17 -3 23 -1 19 8 -2 7 -11 10 -19 7 -16 -6 -10 20 10 46 6 7 11 21 11 30
0 9 7 15 15 13 11 -3 12 -1 4 8 -16 16 -6 50 15 50 9 0 12 3 6 8 -12 9 -18 32
-8 32 5 0 9 10 10 23 1 12 4 29 6 37 2 8 7 32 12 53 6 29 11 37 24 33 14 -5
14 -5 1 6 -13 11 -14 23 -7 66 5 29 12 50 17 47 5 -3 12 -1 15 5 4 6 1 9 -6 8
-6 -2 -14 3 -17 11 -2 8 0 11 6 7 5 -3 12 1 15 9 4 9 1 12 -8 9 -14 -6 -15 12
-1 34 4 7 3 19 -3 26 -6 7 -8 16 -5 19 8 8 11 207 4 207 -3 0 -6 14 -7 30 -1
17 2 30 8 30 6 0 3 7 -6 16 -14 15 -14 17 2 30 10 7 14 14 10 14 -4 0 -3 10 3
23 11 21 10 21 -4 3 -9 -10 -13 -23 -9 -29 3 -6 1 -7 -5 -3 -6 3 -10 14 -10
24 0 9 -2 28 -5 42 -11 53 -21 105 -22 112 0 3 -3 10 -7 14 -5 4 -8 17 -8 28
0 17 2 18 10 6 7 -10 10 -11 10 -2 0 7 -6 15 -14 18 -22 9 -27 46 -8 60 15 12
15 12 -4 8 -31 -8 -41 34 -11 47 l22 10 -22 -5 c-13 -2 -26 0 -29 5 -3 5 1 9
8 10 7 0 4 4 -7 9 -11 5 -14 9 -7 9 7 1 4 9 -9 22 -13 13 -18 27 -13 41 4 13
2 18 -4 14 -9 -5 -27 27 -24 44 0 3 -5 12 -12 20 -7 8 -20 29 -28 45 -41 82
-93 166 -133 214 -12 15 -14 21 -5 16 8 -4 0 6 -19 23 -24 23 -32 37 -28 52 4
16 2 19 -7 11 -13 -11 -26 -5 -26 11 0 5 4 7 9 3 5 -3 12 -1 15 4 3 4 -4 8
-17 7 -15 -1 -22 4 -21 16 1 10 -2 15 -7 13 -12 -8 -60 37 -55 52 3 8 -1 10
-11 6 -11 -4 -14 -2 -9 5 4 7 3 12 -2 12 -6 0 -23 12 -39 28 -26 24 -87 75
-143 122 -10 8 -27 22 -37 31 -10 8 -27 18 -37 22 -19 7 -19 8 0 23 18 14 18
15 -3 5 -22 -11 -53 -5 -53 9 0 5 -9 12 -20 15 -11 4 -17 11 -14 17 5 7 1 9
-9 5 -12 -4 -17 -1 -17 11 0 15 -2 15 -10 2 -6 -10 -10 -11 -10 -2 0 6 -7 12
-15 12 -8 0 -15 5 -15 12 0 6 -3 9 -6 5 -7 -6 -80 28 -106 51 -10 8 -18 12
-18 8 0 -4 -10 -1 -22 6 -13 7 -27 11 -32 10 -5 -2 -6 4 -2 13 4 12 2 14 -13
6 -20 -11 -31 -6 -27 12 2 7 1 9 -1 5 -3 -5 -11 -8 -19 -8 -9 0 -12 5 -8 12 4
6 3 9 -2 5 -15 -9 -134 27 -145 44 -6 9 -9 10 -9 2 0 -9 -7 -10 -24 -3 -13 5
-27 6 -30 3 -3 -4 -6 -1 -6 6 0 7 -4 9 -10 6 -5 -3 -10 -2 -10 3 0 5 -12 7
-27 4 -22 -4 -25 -2 -20 14 7 18 6 18 -8 0 -8 -11 -15 -14 -15 -7 0 7 -4 10
-9 7 -12 -8 -42 4 -36 13 2 4 -2 8 -10 8 -8 0 -11 -5 -8 -10 8 -13 -57 -1 -71
13 -6 6 -4 15 4 25 7 8 10 15 7 15 -2 0 -10 -6 -16 -14z"/>
<path d="M2825 4340 c-3 -6 1 -7 9 -4 18 7 21 14 7 14 -6 0 -13 -4 -16 -10z"/>
<path d="M2029 4323 c-13 -16 -12 -17 4 -4 9 7 17 15 17 17 0 8 -8 3 -21 -13z"/>
<path d="M2170 4325 c-9 -11 -10 -19 -3 -26 8 -8 13 -7 18 2 5 8 4 10 -3 5
-16 -9 -15 7 0 22 7 7 9 12 6 12 -3 0 -11 -7 -18 -15z"/>
<path d="M2290 4325 c-7 -9 -8 -15 -2 -15 5 0 12 7 16 15 3 8 4 15 2 15 -2 0
-9 -7 -16 -15z"/>
<path d="M2358 4333 c7 -3 16 -2 19 1 4 3 -2 6 -13 5 -11 0 -14 -3 -6 -6z"/>
<path d="M2895 4330 c-4 -6 -11 -8 -16 -5 -5 4 -9 2 -9 -4 0 -19 16 -19 28 0
7 10 10 19 8 19 -3 0 -8 -5 -11 -10z"/>
<path d="M2995 4330 c-4 -6 -11 -8 -16 -5 -5 4 -9 1 -9 -4 0 -16 16 -13 30 4
7 8 10 15 7 15 -3 0 -9 -5 -12 -10z"/>
<path d="M1995 4320 c-3 -5 -1 -10 4 -10 6 0 11 5 11 10 0 6 -2 10 -4 10 -3 0
-8 -4 -11 -10z"/>
<path d="M2093 4314 c0 -9 7 -10 23 -4 12 5 25 7 28 4 3 -2 4 -1 1 3 -9 12
-52 9 -52 -3z"/>
<path d="M2210 4321 c0 -6 4 -13 10 -16 6 -3 7 1 4 9 -7 18 -14 21 -14 7z"/>
<path d="M2240 4320 c18 -12 30 -13 30 -2 0 4 -10 9 -22 9 -18 2 -20 0 -8 -7z"/>
<path d="M2936 4322 c-3 -5 1 -9 9 -9 8 0 12 4 9 9 -3 4 -7 8 -9 8 -2 0 -6 -4
-9 -8z"/>
<path d="M3096 4322 c-3 -5 1 -9 9 -9 8 0 12 4 9 9 -3 4 -7 8 -9 8 -2 0 -6 -4
-9 -8z"/>
<path d="M1830 4299 c0 -5 5 -7 10 -4 6 3 10 8 10 11 0 2 -4 4 -10 4 -5 0 -10
-5 -10 -11z"/>
<path d="M3005 4300 c-3 -6 1 -7 9 -4 18 7 21 14 7 14 -6 0 -13 -4 -16 -10z"/>
<path d="M1673 4275 c0 -8 4 -12 9 -9 5 3 6 10 3 15 -9 13 -12 11 -12 -6z"/>
<path d="M1934 4278 c-4 -7 -4 -10 1 -6 4 4 15 2 24 -5 14 -11 14 -10 2 6 -16
20 -18 21 -27 5z"/>
<path d="M2064 4278 c-4 -5 -3 -12 0 -15 3 -4 6 -1 6 6 0 7 4 10 9 6 5 -3 12
-2 15 3 3 5 -2 9 -10 9 -8 0 -17 -4 -20 -9z"/>
<path d="M3035 4280 c3 -5 8 -10 11 -10 2 0 4 5 4 10 0 6 -5 10 -11 10 -5 0
-7 -4 -4 -10z"/>
<path d="M3210 4280 c0 -5 5 -10 11 -10 5 0 7 5 4 10 -3 6 -8 10 -11 10 -2 0
-4 -4 -4 -10z"/>
<path d="M1870 4276 c0 -2 8 -10 18 -17 15 -13 16 -12 3 4 -13 16 -21 21 -21
13z"/>
<path d="M3000 4276 c0 -2 7 -7 16 -10 8 -3 12 -2 9 4 -6 10 -25 14 -25 6z"/>
<path d="M2015 4260 c3 -5 8 -10 11 -10 2 0 4 5 4 10 0 6 -5 10 -11 10 -5 0
-7 -4 -4 -10z"/>
<path d="M3070 4261 c0 -6 4 -13 10 -16 6 -3 7 1 4 9 -7 18 -14 21 -14 7z"/>
<path d="M3121 4248 c5 -10 11 -18 12 -18 2 0 3 8 3 18 0 10 -6 19 -13 19 -8
0 -9 -6 -2 -19z"/>
<path d="M3153 4253 c0 -9 4 -10 14 -2 7 6 13 12 13 14 0 1 -6 2 -13 2 -8 0
-14 -6 -14 -14z"/>
<path d="M3295 4261 c-3 -5 -2 -12 3 -15 5 -3 9 1 9 9 0 17 -3 19 -12 6z"/>
<path d="M3185 4240 c-3 -6 1 -7 9 -4 18 7 21 14 7 14 -6 0 -13 -4 -16 -10z"/>
<path d="M3516 4238 c3 -5 10 -6 15 -3 13 9 11 12 -6 12 -8 0 -12 -4 -9 -9z"/>
<path d="M3274 4226 c1 -8 5 -18 8 -22 4 -3 5 1 4 10 -1 8 -5 18 -8 22 -4 3
-5 -1 -4 -10z"/>
<path d="M3230 4226 c0 -2 7 -7 16 -10 8 -3 12 -2 9 4 -6 10 -25 14 -25 6z"/>
<path d="M1713 4186 l-18 -21 24 20 c13 11 25 19 28 17 3 -2 7 -2 9 1 2 2 -3
4 -11 4 -8 0 -23 -10 -32 -21z"/>
<path d="M1781 4196 c-9 -11 -9 -16 0 -22 8 -5 9 -3 4 6 -6 10 -4 12 8 7 11
-4 14 -2 10 9 -6 17 -8 17 -22 0z"/>
<path d="M1656 4167 c3 -10 9 -15 12 -12 3 3 0 11 -7 18 -10 9 -11 8 -5 -6z"/>
<path d="M3341 4175 c0 -5 6 -18 14 -29 13 -18 14 -18 12 2 0 11 -4 19 -8 16
-4 -2 -10 2 -12 8 -3 7 -6 9 -6 3z"/>
<path d="M3433 4165 c0 -8 4 -12 9 -9 5 3 6 10 3 15 -9 13 -12 11 -12 -6z"/>
<path d="M3479 4153 c-12 -16 -12 -17 2 -6 9 7 20 9 24 5 5 -4 5 -1 1 6 -9 16
-11 15 -27 -5z"/>
<path d="M1632 4147 c-8 -10 -6 -13 11 -14 12 0 16 1 9 4 -6 3 -10 9 -6 14 8
14 -2 11 -14 -4z"/>
<path d="M3414 4126 c1 -8 5 -18 8 -22 4 -3 5 1 4 10 -1 8 -5 18 -8 22 -4 3
-5 -1 -4 -10z"/>
<path d="M1560 4120 c-12 -7 -10 -9 7 -7 12 0 19 5 17 9 -6 10 -6 10 -24 -2z"/>
<path d="M3516 4113 c-6 -14 -5 -15 5 -6 7 7 10 15 7 18 -3 3 -9 -2 -12 -12z"/>
<path d="M3550 4119 c0 -5 5 -7 10 -4 6 3 10 8 10 11 0 2 -4 4 -10 4 -5 0 -10
-5 -10 -11z"/>
<path d="M1407 4099 c7 -7 15 -10 18 -7 3 3 -2 9 -12 12 -14 6 -15 5 -6 -5z"/>
<path d="M3467 4093 c3 -7 6 -13 8 -13 1 0 7 6 13 13 8 10 6 13 -7 13 -11 0
-17 -6 -14 -13z"/>
<path d="M3566 4102 c-3 -5 1 -9 9 -9 8 0 12 4 9 9 -3 4 -7 8 -9 8 -2 0 -6 -4
-9 -8z"/>
<path d="M1543 4079 c9 -6 14 -15 11 -21 -4 -7 -2 -8 5 -4 14 9 -3 36 -23 36
-6 0 -3 -5 7 -11z"/>
<path d="M3540 4080 c8 -5 20 -10 25 -10 6 0 3 5 -5 10 -8 5 -19 10 -25 10 -5
0 -3 -5 5 -10z"/>
<path d="M3589 4063 c-13 -16 -12 -17 4 -4 9 7 17 15 17 17 0 8 -8 3 -21 -13z"/>
<path d="M1373 4055 c0 -8 4 -12 9 -9 5 3 6 10 3 15 -9 13 -12 11 -12 -6z"/>
<path d="M1512 4054 c10 -10 20 -16 22 -13 3 3 -5 11 -17 18 -21 13 -21 12 -5
-5z"/>
<path d="M1491 4034 c0 -11 3 -14 6 -6 3 7 2 16 -1 19 -3 4 -6 -2 -5 -13z"/>
<path d="M1377 3999 c7 -7 15 -10 18 -7 3 3 -2 9 -12 12 -14 6 -15 5 -6 -5z"/>
<path d="M1430 4001 c0 -5 5 -13 10 -16 6 -3 10 -2 10 4 0 5 -4 13 -10 16 -5
3 -10 2 -10 -4z"/>
<path d="M3796 3998 c3 -5 10 -6 15 -3 13 9 11 12 -6 12 -8 0 -12 -4 -9 -9z"/>
<path d="M1315 3980 c-3 -5 -1 -10 4 -10 6 0 11 5 11 10 0 6 -2 10 -4 10 -3 0
-8 -4 -11 -10z"/>
<path d="M3716 3969 c9 -10 21 -16 25 -13 13 8 11 14 -3 12 -7 -2 -12 2 -11 8
1 6 -5 11 -13 11 -12 0 -11 -4 2 -18z"/>
<path d="M1373 3963 c0 -8 6 -9 19 -2 10 5 18 11 18 12 0 2 -8 3 -18 3 -10 0
-19 -6 -19 -13z"/>
<path d="M1196 3958 c3 -5 10 -6 15 -3 13 9 11 12 -6 12 -8 0 -12 -4 -9 -9z"/>
<path d="M1340 3955 c-11 -13 -10 -14 4 -9 9 3 16 10 16 15 0 13 -6 11 -20 -6z"/>
<path d="M1274 3926 c1 -8 5 -18 8 -22 4 -3 5 1 4 10 -1 8 -5 18 -8 22 -4 3
-5 -1 -4 -10z"/>
<path d="M3731 3924 c0 -11 3 -14 6 -6 3 7 2 16 -1 19 -3 4 -6 -2 -5 -13z"/>
<path d="M1240 3920 c-9 -6 -10 -10 -3 -10 6 0 15 5 18 10 8 12 4 12 -15 0z"/>
<path d="M3850 3919 c0 -5 5 -7 10 -4 6 3 10 8 10 11 0 2 -4 4 -10 4 -5 0 -10
-5 -10 -11z"/>
<path d="M1195 3911 c-3 -5 -2 -12 3 -15 5 -3 9 1 9 9 0 17 -3 19 -12 6z"/>
<path d="M3791 3907 c-8 -10 -7 -14 2 -14 8 0 14 6 14 14 0 7 -1 13 -2 13 -2
0 -8 -6 -14 -13z"/>
<path d="M3873 3885 c0 -8 4 -12 9 -9 5 3 6 10 3 15 -9 13 -12 11 -12 -6z"/>
<path d="M1155 3861 c-3 -5 -2 -12 3 -15 5 -3 9 1 9 9 0 17 -3 19 -12 6z"/>
<path d="M3788 3863 c7 -3 16 -2 19 1 4 3 -2 6 -13 5 -11 0 -14 -3 -6 -6z"/>
<path d="M3827 3856 c5 -15 3 -17 -8 -11 -8 5 -11 4 -6 -1 13 -14 56 -12 70 4
10 13 9 14 -3 7 -22 -14 -33 -13 -48 5 -10 13 -11 12 -5 -4z"/>
<path d="M1235 3850 c-4 -6 -10 -8 -14 -6 -4 3 -8 -1 -8 -9 0 -10 4 -12 12 -5
7 5 16 6 20 2 5 -4 5 -2 2 5 -4 6 -1 14 5 16 9 4 10 6 1 6 -6 1 -15 -4 -18 -9z"/>
<path d="M1181 3812 c-1 -7 -5 -10 -11 -7 -6 4 -7 -1 -3 -11 4 -11 8 -13 11
-6 2 7 8 10 12 7 5 -3 12 0 16 6 4 7 3 9 -4 5 -5 -3 -13 0 -15 6 -4 10 -6 10
-6 0z"/>
<path d="M3930 3816 c0 -2 8 -10 18 -17 15 -13 16 -12 3 4 -13 16 -21 21 -21
13z"/>
<path d="M3970 3799 c0 -5 5 -7 10 -4 6 3 10 8 10 11 0 2 -4 4 -10 4 -5 0 -10
-5 -10 -11z"/>
<path d="M1119 3773 c-13 -16 -12 -17 4 -4 9 7 17 15 17 17 0 8 -8 3 -21 -13z"/>
<path d="M3959 3775 c-1 -3 -2 -8 -3 -12 -1 -5 -4 -13 -8 -19 -4 -6 -1 -11 5
-11 7 0 13 11 13 24 0 21 -4 31 -7 18z"/>
<path d="M1151 3754 c0 -11 3 -14 6 -6 3 7 2 16 -1 19 -3 4 -6 -2 -5 -13z"/>
<path d="M1000 3720 c-9 -6 -10 -10 -3 -10 6 0 15 5 18 10 8 12 4 12 -15 0z"/>
<path d="M1130 3719 c0 -5 5 -7 10 -4 6 3 10 8 10 11 0 2 -4 4 -10 4 -5 0 -10
-5 -10 -11z"/>
<path d="M4065 3720 c-3 -6 1 -7 9 -4 18 7 21 14 7 14 -6 0 -13 -4 -16 -10z"/>
<path d="M1035 3702 c3 -3 0 -10 -5 -17 -7 -8 -5 -12 5 -12 8 0 13 3 10 5 -3
3 0 10 5 17 7 8 5 12 -5 12 -8 0 -13 -3 -10 -5z"/>
<path d="M1075 3702 c3 -3 -1 -12 -7 -21 -8 -10 -4 -9 10 3 26 23 26 23 7 23
-8 0 -13 -3 -10 -5z"/>
<path d="M1061 3644 c0 -11 3 -14 6 -6 3 7 2 16 -1 19 -3 4 -6 -2 -5 -13z"/>
<path d="M4054 3646 c1 -8 5 -18 8 -22 4 -3 5 1 4 10 -1 8 -5 18 -8 22 -4 3
-5 -1 -4 -10z"/>
<path d="M879 3633 c-13 -16 -12 -17 4 -4 9 7 17 15 17 17 0 8 -8 3 -21 -13z"/>
<path d="M970 3640 c0 -5 5 -10 11 -10 5 0 7 5 4 10 -3 6 -8 10 -11 10 -2 0
-4 -4 -4 -10z"/>
<path d="M4026 3623 c-6 -14 -5 -15 5 -6 7 7 10 15 7 18 -3 3 -9 -2 -12 -12z"/>
<path d="M1030 3620 c0 -5 5 -10 10 -10 6 0 10 5 10 10 0 6 -4 10 -10 10 -5 0
-10 -4 -10 -10z"/>
<path d="M995 3581 c-3 -5 -2 -12 3 -15 5 -3 9 1 9 9 0 17 -3 19 -12 6z"/>
<path d="M4070 3581 c0 -6 4 -13 10 -16 6 -3 7 1 4 9 -7 18 -14 21 -14 7z"/>
<path d="M4094 3583 c3 -3 17 -7 32 -9 14 -1 23 0 20 3 -3 4 -18 8 -32 9 -14
2 -24 0 -20 -3z"/>
<path d="M4173 3569 c-2 -23 3 -25 10 -4 4 8 3 16 -1 19 -4 3 -9 -4 -9 -15z"/>
<path d="M911 3567 c-8 -10 -7 -14 2 -14 8 0 14 6 14 14 0 7 -1 13 -2 13 -2 0
-8 -6 -14 -13z"/>
<path d="M950 3541 c0 -6 4 -13 10 -16 6 -3 7 1 4 9 -7 18 -14 21 -14 7z"/>
<path d="M4110 3541 c0 -5 8 -15 18 -22 15 -12 16 -12 5 2 -7 9 -10 19 -6 22
3 4 1 7 -5 7 -7 0 -12 -4 -12 -9z"/>
<path d="M4147 3539 c7 -7 15 -10 18 -7 3 3 -2 9 -12 12 -14 6 -15 5 -6 -5z"/>
<path d="M914 3516 c0 -12 6 -23 13 -23 9 0 10 4 3 12 -5 7 -7 14 -4 17 3 3 1
8 -3 11 -5 3 -9 -5 -9 -17z"/>
<path d="M850 3500 c0 -5 5 -10 11 -10 5 0 7 5 4 10 -3 6 -8 10 -11 10 -2 0
-4 -4 -4 -10z"/>
<path d="M4146 3502 c-2 -4 4 -8 14 -8 10 0 16 4 14 8 -3 4 -9 8 -14 8 -5 0
-11 -4 -14 -8z"/>
<path d="M800 3480 c-9 -6 -10 -10 -3 -10 6 0 15 5 18 10 8 12 4 12 -15 0z"/>
<path d="M4115 3480 c3 -5 8 -10 11 -10 2 0 4 5 4 10 0 6 -5 10 -11 10 -5 0
-7 -4 -4 -10z"/>
<path d="M4255 3471 c-3 -5 -2 -12 3 -15 5 -3 9 1 9 9 0 17 -3 19 -12 6z"/>
<path d="M4195 3450 c10 -11 20 -20 23 -20 3 0 -3 9 -13 20 -10 11 -20 20 -23
20 -3 0 3 -9 13 -20z"/>
<path d="M836 3433 c-6 -14 -5 -15 5 -6 7 7 10 15 7 18 -3 3 -9 -2 -12 -12z"/>
<path d="M781 3396 c-9 -11 -9 -16 1 -22 7 -4 10 -4 6 1 -4 4 -3 14 3 22 6 7
9 13 6 13 -2 0 -10 -6 -16 -14z"/>
<path d="M815 3401 c-3 -5 -2 -12 3 -15 5 -3 9 1 9 9 0 17 -3 19 -12 6z"/>
<path d="M866 3382 c-3 -5 1 -9 9 -9 8 0 12 4 9 9 -3 4 -7 8 -9 8 -2 0 -6 -4
-9 -8z"/>
<path d="M4195 3360 c3 -5 8 -10 11 -10 2 0 4 5 4 10 0 6 -5 10 -11 10 -5 0
-7 -4 -4 -10z"/>
<path d="M832 3347 c-8 -10 -6 -13 7 -13 11 0 17 6 14 13 -3 7 -6 13 -8 13 -1
0 -7 -6 -13 -13z"/>
<path d="M4216 3342 c-3 -4 4 -9 15 -9 23 -2 25 3 4 10 -8 4 -16 3 -19 -1z"/>
<path d="M789 3323 c-13 -16 -12 -17 4 -4 9 7 17 15 17 17 0 8 -8 3 -21 -13z"/>
<path d="M4226 3305 c-4 -11 -4 -16 0 -13 3 4 14 -1 23 -10 9 -10 12 -12 8 -5
-5 6 -5 18 -1 24 4 7 3 9 -4 5 -5 -3 -12 -1 -14 6 -3 7 -7 4 -12 -7z"/>
<path d="M828 3303 c6 -2 9 -10 6 -15 -4 -7 -2 -8 5 -4 13 9 5 26 -12 25 -9 0
-8 -2 1 -6z"/>
<path d="M4273 3295 c0 -8 4 -12 9 -9 5 3 6 10 3 15 -9 13 -12 11 -12 -6z"/>
<path d="M4355 3291 c-3 -5 -2 -12 3 -15 5 -3 9 1 9 9 0 17 -3 19 -12 6z"/>
<path d="M687 3279 c7 -7 15 -10 18 -7 3 3 -2 9 -12 12 -14 6 -15 5 -6 -5z"/>
<path d="M4307 3259 c7 -7 15 -10 18 -7 3 3 -2 9 -12 12 -14 6 -15 5 -6 -5z"/>
<path d="M795 3250 c-4 -6 -10 -8 -15 -5 -5 3 -11 1 -14 -4 -8 -13 22 -7 36 7
7 7 9 12 6 12 -4 0 -10 -5 -13 -10z"/>
<path d="M4265 3240 c-3 -6 1 -7 9 -4 18 7 21 14 7 14 -6 0 -13 -4 -16 -10z"/>
<path d="M696 3222 c-2 -4 -1 -14 4 -22 7 -11 9 -9 7 8 -1 24 -3 26 -11 14z"/>
<path d="M795 3220 c-3 -5 -1 -10 4 -10 6 0 11 5 11 10 0 6 -2 10 -4 10 -3 0
-8 -4 -11 -10z"/>
<path d="M773 3195 c0 -7 6 -11 14 -8 7 3 13 6 13 8 0 2 -6 5 -13 8 -8 3 -14
-1 -14 -8z"/>
<path d="M4275 3199 c-4 -6 -5 -12 -2 -15 2 -3 7 2 10 11 7 17 1 20 -8 4z"/>
<path d="M666 3161 c-14 -15 -15 -21 -4 -27 7 -4 10 -3 5 1 -4 5 0 17 10 27 9
10 14 18 11 18 -3 0 -13 -9 -22 -19z"/>
<path d="M735 3169 c-4 -6 -5 -12 -2 -15 2 -3 7 2 10 11 7 17 1 20 -8 4z"/>
<path d="M4290 3166 c0 -2 7 -7 16 -10 8 -3 12 -2 9 4 -6 10 -25 14 -25 6z"/>
<path d="M4339 3153 c-13 -16 -12 -17 3 -5 9 8 23 10 29 6 8 -4 9 -3 5 4 -10
17 -21 15 -37 -5z"/>
<path d="M734 3120 c0 -15 4 -16 18 -9 10 5 18 13 18 16 0 3 -3 3 -7 0 -3 -4
-11 -3 -17 3 -8 6 -12 3 -12 -10z"/>
<path d="M675 3100 c-3 -5 -1 -10 4 -10 6 0 11 5 11 10 0 6 -2 10 -4 10 -3 0
-8 -4 -11 -10z"/>
<path d="M4416 3098 c3 -4 11 -5 19 -1 21 7 19 12 -4 10 -11 0 -18 -5 -15 -9z"/>
<path d="M714 3083 c3 -4 0 -13 -6 -22 -9 -11 -6 -10 9 2 13 12 23 14 26 7 4
-6 5 -6 3 1 -1 7 -10 13 -20 15 -10 1 -15 0 -12 -3z"/>
<path d="M4350 3081 c0 -6 4 -13 10 -16 6 -3 7 1 4 9 -7 18 -14 21 -14 7z"/>
<path d="M4386 3058 c3 -5 10 -6 15 -3 13 9 11 12 -6 12 -8 0 -12 -4 -9 -9z"/>
<path d="M669 3043 c-13 -16 -12 -17 4 -4 9 7 17 15 17 17 0 8 -8 3 -21 -13z"/>
<path d="M593 3035 c0 -8 4 -12 9 -9 5 3 6 10 3 15 -9 13 -12 11 -12 -6z"/>
<path d="M4357 3035 c-4 -8 -3 -16 1 -19 4 -3 9 4 9 15 2 23 -3 25 -10 4z"/>
<path d="M4385 3020 c-3 -6 1 -7 9 -4 18 7 21 14 7 14 -6 0 -13 -4 -16 -10z"/>
<path d="M680 2991 c0 -6 4 -13 10 -16 6 -3 7 1 4 9 -7 18 -14 21 -14 7z"/>
<path d="M4355 2940 c3 -5 8 -10 11 -10 2 0 4 5 4 10 0 6 -5 10 -11 10 -5 0
-7 -4 -4 -10z"/>
<path d="M630 2936 c0 -2 8 -10 18 -17 15 -13 16 -12 3 4 -13 16 -21 21 -21
13z"/>
<path d="M4469 2883 c-13 -16 -12 -17 4 -4 16 13 21 21 13 21 -2 0 -10 -8 -17
-17z"/>
<path d="M4429 2857 c6 -8 9 -16 6 -19 -3 -2 2 -5 10 -5 13 0 13 3 -2 19 -19
21 -31 25 -14 5z"/>
<path d="M510 2856 c0 -2 8 -10 18 -17 15 -13 16 -12 3 4 -13 16 -21 21 -21
13z"/>
<path d="M4494 2818 c-4 -7 -4 -10 1 -6 4 4 15 2 24 -5 14 -11 14 -10 2 6 -16
20 -18 21 -27 5z"/>
<path d="M651 2764 c0 -11 3 -14 6 -6 3 7 2 16 -1 19 -3 4 -6 -2 -5 -13z"/>
<path d="M4450 2761 c0 -6 4 -13 10 -16 6 -3 7 1 4 9 -7 18 -14 21 -14 7z"/>
<path d="M596 2742 c-3 -5 1 -9 9 -9 8 0 12 4 9 9 -3 4 -7 8 -9 8 -2 0 -6 -4
-9 -8z"/>
<path d="M4410 2718 c0 -4 9 -7 20 -5 29 5 33 13 5 13 -14 0 -25 -4 -25 -8z"/>
<path d="M4475 2721 c-3 -5 -2 -12 3 -15 5 -3 9 1 9 9 0 17 -3 19 -12 6z"/>
<path d="M600 2700 c-9 -6 -10 -10 -3 -10 6 0 15 5 18 10 8 12 4 12 -15 0z"/>
<path d="M633 2695 c0 -8 4 -12 9 -9 4 3 8 9 8 15 0 5 -4 9 -8 9 -5 0 -9 -7
-9 -15z"/>
<path d="M600 2646 c0 -2 8 -10 18 -17 15 -13 16 -12 3 4 -13 16 -21 21 -21
13z"/>
<path d="M4430 2645 c0 -7 30 -13 34 -7 3 4 -4 9 -15 9 -10 1 -19 0 -19 -2z"/>
<path d="M630 2602 c0 -5 7 -9 15 -9 8 0 12 4 9 9 -3 4 -9 8 -15 8 -5 0 -9 -4
-9 -8z"/>
<path d="M4479 2593 c-13 -16 -12 -17 4 -4 16 13 21 21 13 21 -2 0 -10 -8 -17
-17z"/>
<path d="M4526 2602 c-3 -5 1 -9 9 -9 8 0 12 4 9 9 -3 4 -7 8 -9 8 -2 0 -6 -4
-9 -8z"/>
<path d="M4436 2575 c-3 -9 -10 -13 -16 -10 -5 3 -10 1 -10 -4 0 -6 4 -11 9
-11 12 0 35 29 29 36 -3 3 -8 -2 -12 -11z"/>
<path d="M651 2564 c0 -11 3 -14 6 -6 3 7 2 16 -1 19 -3 4 -6 -2 -5 -13z"/>
<path d="M4475 2560 c3 -5 8 -10 11 -10 2 0 4 5 4 10 0 6 -5 10 -11 10 -5 0
-7 -4 -4 -10z"/>
<path d="M651 2524 c0 -11 3 -14 6 -6 3 7 2 16 -1 19 -3 4 -6 -2 -5 -13z"/>
<path d="M4436 2495 c-3 -9 -10 -13 -16 -10 -5 3 -10 1 -10 -4 0 -6 4 -11 9
-11 12 0 35 29 29 36 -3 3 -8 -2 -12 -11z"/>
<path d="M651 2484 c0 -11 3 -14 6 -6 3 7 2 16 -1 19 -3 4 -6 -2 -5 -13z"/>
<path d="M621 2474 c0 -11 3 -14 6 -6 3 7 2 16 -1 19 -3 4 -6 -2 -5 -13z"/>
<path d="M555 2440 c-3 -5 -1 -10 4 -10 6 0 11 5 11 10 0 6 -2 10 -4 10 -3 0
-8 -4 -11 -10z"/>
<path d="M596 2441 c-3 -5 2 -15 12 -22 15 -12 16 -12 5 2 -7 9 -10 19 -6 22
3 4 4 7 0 7 -3 0 -8 -4 -11 -9z"/>
<path d="M4446 2438 c3 -5 10 -6 15 -3 13 9 11 12 -6 12 -8 0 -12 -4 -9 -9z"/>
<path d="M4459 2408 c15 -21 31 -23 31 -6 0 6 -3 8 -7 5 -3 -4 -13 -1 -22 6
-14 11 -14 10 -2 -5z"/>
<path d="M550 2376 c0 -2 8 -10 18 -17 15 -13 16 -12 3 4 -13 16 -21 21 -21
13z"/>
<path d="M4470 2359 c0 -5 5 -7 10 -4 6 3 10 8 10 11 0 2 -4 4 -10 4 -5 0 -10
-5 -10 -11z"/>
<path d="M4515 2361 c-3 -5 -2 -12 3 -15 5 -3 9 1 9 9 0 17 -3 19 -12 6z"/>
<path d="M610 2336 c0 -2 8 -10 18 -17 15 -13 16 -12 3 4 -13 16 -21 21 -21
13z"/>
<path d="M655 2301 c6 -11 4 -13 -8 -8 -23 9 -21 0 2 -13 15 -7 19 -7 17 5 -1
8 -6 18 -11 22 -4 5 -5 2 0 -6z"/>
<path d="M4456 2287 c3 -10 9 -15 12 -12 3 3 0 11 -7 18 -10 9 -11 8 -5 -6z"/>
<path d="M4419 2273 c-12 -16 -12 -17 2 -6 9 7 20 9 24 5 5 -4 5 -1 1 6 -9 16
-11 15 -27 -5z"/>
<path d="M624 2262 c4 -3 14 -7 22 -8 9 -1 13 0 10 4 -4 3 -14 7 -22 8 -9 1
-13 0 -10 -4z"/>
<path d="M4490 2260 c0 -5 5 -10 11 -10 5 0 7 5 4 10 -3 6 -8 10 -11 10 -2 0
-4 -4 -4 -10z"/>
<path d="M570 2220 c0 -5 5 -10 11 -10 5 0 7 5 4 10 -3 6 -8 10 -11 10 -2 0
-4 -4 -4 -10z"/>
<path d="M4394 2215 c3 -23 12 -26 13 -5 1 11 -2 20 -7 20 -4 0 -7 -7 -6 -15z"/>
<path d="M655 2169 c-4 -6 -14 -8 -24 -4 -13 5 -14 4 -3 -6 10 -11 15 -10 29
4 10 9 14 17 11 17 -4 0 -10 -5 -13 -11z"/>
<path d="M4409 2163 c-13 -16 -12 -17 4 -4 16 13 21 21 13 21 -2 0 -10 -8 -17
-17z"/>
<path d="M666 2143 c-6 -14 -5 -15 5 -6 7 7 10 15 7 18 -3 3 -9 -2 -12 -12z"/>
<path d="M4388 2103 c6 -2 18 -2 25 0 6 3 1 5 -13 5 -14 0 -19 -2 -12 -5z"/>
<path d="M645 2080 c10 -11 20 -20 23 -20 3 0 -3 9 -13 20 -10 11 -20 20 -23
20 -3 0 3 -9 13 -20z"/>
<path d="M685 2080 c-3 -6 1 -7 9 -4 18 7 21 14 7 14 -6 0 -13 -4 -16 -10z"/>
<path d="M4374 2082 c4 -3 14 -7 22 -8 9 -1 13 0 10 4 -4 3 -14 7 -22 8 -9 1
-13 0 -10 -4z"/>
<path d="M4355 2061 c-3 -5 -2 -12 3 -15 5 -3 9 1 9 9 0 17 -3 19 -12 6z"/>
<path d="M4456 2058 c3 -5 10 -6 15 -3 13 9 11 12 -6 12 -8 0 -12 -4 -9 -9z"/>
<path d="M4360 2020 c-9 -6 -10 -10 -3 -10 6 0 15 5 18 10 8 12 4 12 -15 0z"/>
<path d="M636 2007 c3 -10 9 -15 12 -12 3 3 0 11 -7 18 -10 9 -11 8 -5 -6z"/>
<path d="M670 2001 c0 -6 4 -13 10 -16 6 -3 7 1 4 9 -7 18 -14 21 -14 7z"/>
<path d="M4390 2006 c0 -2 7 -7 16 -10 8 -3 12 -2 9 4 -6 10 -25 14 -25 6z"/>
<path d="M4393 1969 c-2 -23 3 -25 10 -4 4 8 3 16 -1 19 -4 3 -9 -4 -9 -15z"/>
<path d="M695 1969 c-4 -6 -5 -12 -2 -15 2 -3 7 2 10 11 7 17 1 20 -8 4z"/>
<path d="M4329 1963 c-13 -16 -12 -17 4 -4 9 7 17 15 17 17 0 8 -8 3 -21 -13z"/>
<path d="M730 1926 c0 -2 7 -7 16 -10 8 -3 12 -2 9 4 -6 10 -25 14 -25 6z"/>
<path d="M4335 1919 c-4 -6 -4 -13 -1 -16 3 -4 6 -1 6 6 0 7 5 9 12 5 7 -4 8
-3 4 4 -9 15 -13 15 -21 1z"/>
<path d="M722 1898 c-15 -15 -16 -28 -2 -28 6 0 9 6 8 13 -2 6 3 11 10 9 8 -1
11 2 7 8 -8 13 -8 13 -23 -2z"/>
<path d="M673 1885 c0 -8 4 -15 9 -15 4 0 8 4 8 9 0 6 -4 12 -8 15 -5 3 -9 -1
-9 -9z"/>
<path d="M4306 1880 c5 -8 9 -18 9 -22 0 -3 3 -9 7 -13 3 -4 5 0 4 9 -1 9 -8
22 -16 29 -10 10 -11 9 -4 -3z"/>
<path d="M755 1870 c-3 -6 1 -7 9 -4 18 7 21 14 7 14 -6 0 -13 -4 -16 -10z"/>
<path d="M4370 1859 c0 -5 5 -7 10 -4 6 3 10 8 10 11 0 2 -4 4 -10 4 -5 0 -10
-5 -10 -11z"/>
<path d="M751 1814 c6 -7 7 -19 3 -25 -4 -7 -3 -9 4 -5 15 9 11 43 -5 43 -9 0
-10 -4 -2 -13z"/>
<path d="M782 1800 c0 -14 2 -19 5 -12 2 6 2 18 0 25 -3 6 -5 1 -5 -13z"/>
<path d="M4367 1799 c7 -7 15 -10 18 -7 3 3 -2 9 -12 12 -14 6 -15 5 -6 -5z"/>
<path d="M696 1782 c-3 -5 1 -9 9 -9 8 0 12 4 9 9 -3 4 -7 8 -9 8 -2 0 -6 -4
-9 -8z"/>
<path d="M812 1760 c0 -14 2 -19 5 -12 2 6 2 18 0 25 -3 6 -5 1 -5 -13z"/>
<path d="M753 1756 c-3 -6 -3 -8 2 -4 4 4 13 3 20 -2 8 -7 12 -5 12 3 0 16
-25 18 -34 3z"/>
<path d="M4250 1760 c0 -5 5 -10 10 -10 6 0 10 5 10 10 0 6 -4 10 -10 10 -5 0
-10 -4 -10 -10z"/>
<path d="M4269 1703 c-13 -16 -12 -17 4 -4 9 7 17 15 17 17 0 8 -8 3 -21 -13z"/>
<path d="M837 1699 c7 -7 15 -10 18 -7 3 3 -2 9 -12 12 -14 6 -15 5 -6 -5z"/>
<path d="M813 1685 c0 -8 3 -13 5 -10 3 3 12 -1 21 -7 10 -8 9 -4 -3 10 -23
26 -23 26 -23 7z"/>
<path d="M4213 1685 c-3 -9 -3 -18 -1 -21 3 -3 8 4 11 16 6 23 -1 27 -10 5z"/>
<path d="M4309 1683 c-13 -16 -12 -17 4 -4 16 13 21 21 13 21 -2 0 -10 -8 -17
-17z"/>
<path d="M4240 1660 c-9 -6 -10 -10 -3 -10 6 0 15 5 18 10 8 12 4 12 -15 0z"/>
<path d="M871 1633 c7 -12 15 -20 18 -17 3 2 -3 12 -13 22 -17 16 -18 16 -5
-5z"/>
<path d="M849 1603 c-13 -16 -12 -17 4 -4 9 7 17 15 17 17 0 8 -8 3 -21 -13z"/>
<path d="M815 1580 c-3 -5 -1 -10 4 -10 6 0 11 5 11 10 0 6 -2 10 -4 10 -3 0
-8 -4 -11 -10z"/>
<path d="M4180 1585 c0 -2 6 -8 13 -14 10 -8 14 -7 14 2 0 8 -6 14 -14 14 -7
0 -13 -1 -13 -2z"/>
<path d="M4156 1533 c-4 -10 0 -23 11 -32 15 -15 16 -15 5 0 -7 9 -10 24 -6
33 3 9 4 16 1 16 -3 0 -8 -8 -11 -17z"/>
<path d="M4215 1520 c-3 -5 -1 -10 4 -10 6 0 11 5 11 10 0 6 -2 10 -4 10 -3 0
-8 -4 -11 -10z"/>
<path d="M913 1507 c0 -8 6 -14 14 -14 9 0 10 4 2 14 -6 7 -12 13 -14 13 -1 0
-2 -6 -2 -13z"/>
<path d="M4110 1490 c-14 -10 -21 -22 -17 -26 4 -4 7 -1 7 6 0 9 7 7 22 -6 19
-15 20 -16 9 -1 -11 14 -11 20 -1 32 17 20 10 19 -20 -5z"/>
<path d="M949 1483 c-12 -14 -12 -16 0 -8 11 6 13 4 9 -7 -4 -8 0 -15 7 -15
10 0 11 5 5 17 -5 10 -6 20 -3 24 3 3 4 6 1 6 -3 0 -12 -8 -19 -17z"/>
<path d="M995 1449 c-4 -6 -5 -12 -2 -15 2 -3 7 2 10 11 7 17 1 20 -8 4z"/>
<path d="M846 1438 c3 -5 10 -6 15 -3 13 9 11 12 -6 12 -8 0 -12 -4 -9 -9z"/>
<path d="M915 1440 c-3 -5 -1 -10 4 -10 6 0 11 5 11 10 0 6 -2 10 -4 10 -3 0
-8 -4 -11 -10z"/>
<path d="M4061 1434 c0 -11 3 -14 6 -6 3 7 2 16 -1 19 -3 4 -6 -2 -5 -13z"/>
<path d="M4093 1433 c0 -9 4 -10 14 -2 7 6 13 12 13 14 0 1 -6 2 -13 2 -8 0
-14 -6 -14 -14z"/>
<path d="M906 1398 c3 -5 10 -6 15 -3 13 9 11 12 -6 12 -8 0 -12 -4 -9 -9z"/>
<path d="M4048 1392 c4 -10 7 -12 10 -4 2 7 9 9 15 5 7 -3 8 -2 4 2 -14 16
-36 14 -29 -3z"/>
<path d="M4094 1402 c4 -3 14 -7 22 -8 9 -1 13 0 10 4 -4 3 -14 7 -22 8 -9 1
-13 0 -10 -4z"/>
<path d="M1024 1381 c7 -11 46 -35 46 -28 0 3 -12 12 -26 22 -15 9 -23 12 -20
6z"/>
<path d="M4113 1365 c0 -8 4 -12 9 -9 5 3 6 10 3 15 -9 13 -12 11 -12 -6z"/>
<path d="M956 1318 c3 -5 10 -6 15 -3 13 9 11 12 -6 12 -8 0 -12 -4 -9 -9z"/>
<path d="M3974 1318 c-4 -5 -3 -12 0 -15 3 -4 6 -1 6 5 0 6 7 9 15 6 8 -4 15
-2 15 3 0 12 -29 13 -36 1z"/>
<path d="M1073 1293 c0 -9 4 -10 14 -2 7 6 13 12 13 14 0 1 -6 2 -13 2 -8 0
-14 -6 -14 -14z"/>
<path d="M1124 1279 c-3 -6 -1 -16 5 -22 9 -9 10 -7 5 7 -6 15 -4 17 6 11 9
-5 11 -4 6 3 -9 15 -13 15 -22 1z"/>
<path d="M3916 1281 c-3 -5 2 -15 12 -22 15 -13 16 -12 4 3 -10 13 -10 17 0
21 9 4 9 6 1 6 -6 1 -14 -3 -17 -8z"/>
<path d="M4010 1279 c0 -5 5 -7 10 -4 6 3 10 8 10 11 0 2 -4 4 -10 4 -5 0 -10
-5 -10 -11z"/>
<path d="M3953 1267 c0 -8 6 -14 14 -14 9 0 10 4 2 14 -6 7 -12 13 -14 13 -1
0 -2 -6 -2 -13z"/>
<path d="M1113 1235 c0 -8 4 -12 9 -9 5 3 6 10 3 15 -9 13 -12 11 -12 -6z"/>
<path d="M1186 1216 c5 -12 4 -17 -3 -13 -5 3 -10 -1 -10 -9 0 -13 2 -13 16 0
12 13 13 18 2 28 -10 11 -11 9 -5 -6z"/>
<path d="M3855 1199 c-4 -6 -4 -13 -1 -16 3 -4 6 -1 6 6 0 7 5 9 12 5 7 -4 8
-3 4 4 -9 15 -13 15 -21 1z"/>
<path d="M3880 1175 c-7 -9 -11 -17 -9 -20 3 -2 10 5 17 15 14 24 10 26 -8 5z"/>
<path d="M3976 1182 c-3 -5 1 -9 9 -9 8 0 12 4 9 9 -3 4 -7 8 -9 8 -2 0 -6 -4
-9 -8z"/>
<path d="M1230 1160 c0 -5 5 -10 11 -10 5 0 7 5 4 10 -3 6 -8 10 -11 10 -2 0
-4 -4 -4 -10z"/>
<path d="M1136 1142 c-3 -5 1 -9 9 -9 8 0 12 4 9 9 -3 4 -7 8 -9 8 -2 0 -6 -4
-9 -8z"/>
<path d="M1175 1140 c3 -5 8 -10 11 -10 2 0 4 5 4 10 0 6 -5 10 -11 10 -5 0
-7 -4 -4 -10z"/>
<path d="M3790 1140 c0 -5 5 -10 10 -10 6 0 10 5 10 10 0 6 -4 10 -10 10 -5 0
-10 -4 -10 -10z"/>
<path d="M1279 1128 c-7 -23 -4 -35 7 -35 11 0 11 3 1 16 -10 12 -9 14 6 8 11
-4 16 -3 12 3 -5 9 -24 14 -26 8z"/>
<path d="M3791 1107 c-8 -10 -7 -14 2 -14 8 0 14 6 14 14 0 7 -1 13 -2 13 -2
0 -8 -6 -14 -13z"/>
<path d="M1348 1063 c7 -3 16 -2 19 1 4 3 -2 6 -13 5 -11 0 -14 -3 -6 -6z"/>
<path d="M1390 1042 c0 -5 7 -9 15 -9 8 0 15 4 15 9 0 4 -7 8 -15 8 -8 0 -15
-4 -15 -8z"/>
<path d="M3652 1041 c-11 -7 -11 -9 0 -14 9 -3 15 1 15 9 0 8 -1 14 -1 14 -1
0 -7 -4 -14 -9z"/>
<path d="M1290 1019 c0 -5 5 -7 10 -4 6 3 10 8 10 11 0 2 -4 4 -10 4 -5 0 -10
-5 -10 -11z"/>
<path d="M3635 1001 c-3 -5 -2 -12 3 -15 5 -3 9 1 9 9 0 17 -3 19 -12 6z"/>
<path d="M1430 991 c0 -5 7 -12 16 -15 14 -5 15 -4 4 9 -14 17 -20 19 -20 6z"/>
<path d="M1316 982 c-3 -5 1 -9 9 -9 8 0 12 4 9 9 -3 4 -7 8 -9 8 -2 0 -6 -4
-9 -8z"/>
<path d="M1390 986 c0 -2 7 -7 16 -10 8 -3 12 -2 9 4 -6 10 -25 14 -25 6z"/>
<path d="M1480 980 c-8 -5 -10 -10 -5 -10 6 0 17 5 25 10 8 5 11 10 5 10 -5 0
-17 -5 -25 -10z"/>
<path d="M3575 983 c3 -3 -3 -16 -12 -27 -14 -15 -14 -18 -2 -8 9 6 18 9 22 6
3 -3 4 1 3 10 -1 8 -5 18 -9 21 -4 3 -5 2 -2 -2z"/>
<path d="M3715 980 c3 -5 8 -10 11 -10 2 0 4 5 4 10 0 6 -5 10 -11 10 -5 0 -7
-4 -4 -10z"/>
<path d="M3517 949 c7 -7 15 -10 18 -7 3 3 -2 9 -12 12 -14 6 -15 5 -6 -5z"/>
<path d="M1470 936 c7 -7 13 -7 20 0 6 6 3 10 -10 10 -13 0 -16 -4 -10 -10z"/>
<path d="M3655 940 c-3 -5 -1 -10 4 -10 6 0 11 5 11 10 0 6 -2 10 -4 10 -3 0
-8 -4 -11 -10z"/>
<path d="M3575 929 c-4 -6 -5 -12 -2 -15 2 -3 7 2 10 11 7 17 1 20 -8 4z"/>
<path d="M1560 920 c-8 -5 -10 -10 -5 -10 6 0 17 5 25 10 8 5 11 10 5 10 -5 0
-17 -5 -25 -10z"/>
<path d="M1555 889 c-4 -6 -5 -12 -2 -15 2 -3 7 2 10 11 7 17 1 20 -8 4z"/>
<path d="M1648 892 c-17 -7 -17 -8 0 -18 15 -10 18 -8 18 7 0 11 0 19 -1 18 0
0 -8 -4 -17 -7z"/>
<path d="M3395 889 c-4 -6 -5 -12 -2 -15 2 -3 7 2 10 11 7 17 1 20 -8 4z"/>
<path d="M3453 883 c1 -15 5 -19 13 -13 6 6 13 7 16 4 3 -3 9 -1 12 4 3 6 -2
9 -11 8 -10 -2 -21 2 -25 8 -4 6 -6 1 -5 -11z"/>
<path d="M1495 880 c-3 -5 -1 -10 4 -10 6 0 11 5 11 10 0 6 -2 10 -4 10 -3 0
-8 -4 -11 -10z"/>
<path d="M1686 877 c3 -10 9 -15 12 -12 3 3 0 11 -7 18 -10 9 -11 8 -5 -6z"/>
<path d="M3533 865 c0 -8 4 -12 9 -9 5 3 6 10 3 15 -9 13 -12 11 -12 -6z"/>
<path d="M1631 853 c7 -12 15 -20 18 -17 3 2 -3 12 -13 22 -17 16 -18 16 -5
-5z"/>
<path d="M1575 821 c-3 -5 -2 -12 3 -15 5 -3 9 1 9 9 0 17 -3 19 -12 6z"/>
<path d="M1715 811 c-3 -5 -2 -12 3 -15 5 -3 9 1 9 9 0 17 -3 19 -12 6z"/>
<path d="M1799 818 c-5 -9 -5 -48 -1 -43 6 6 11 45 5 45 -2 0 -4 -1 -4 -2z"/>
<path d="M1824 791 c0 -13 6 -17 19 -13 10 2 16 5 15 6 -2 1 -10 7 -18 13 -13
10 -16 8 -16 -6z"/>
<path d="M3196 793 c-6 -14 -5 -15 5 -6 7 7 10 15 7 18 -3 3 -9 -2 -12 -12z"/>
<path d="M3210 777 c0 -2 6 -10 14 -16 11 -9 16 -9 22 1 4 7 4 10 -1 6 -4 -4
-14 -3 -22 3 -7 6 -13 9 -13 6z"/>
<path d="M1933 755 c0 -8 4 -12 9 -9 5 3 16 0 25 -8 12 -9 15 -9 9 -1 -12 22
-43 34 -43 18z"/>
<path d="M3133 755 c0 -8 4 -12 9 -9 4 3 8 9 8 15 0 5 -4 9 -8 9 -5 0 -9 -7
-9 -15z"/>
<path d="M3194 756 c1 -8 5 -18 8 -22 4 -3 5 1 4 10 -1 8 -5 18 -8 22 -4 3 -5
-1 -4 -10z"/>
<path d="M2045 742 c-12 -8 -14 -47 -3 -57 3 -4 5 1 4 12 -2 10 1 26 6 36 10
19 8 20 -7 9z"/>
<path d="M3003 722 c-15 -20 -17 -29 -8 -29 8 0 13 3 12 6 -1 3 4 16 11 29 17
31 10 28 -15 -6z"/>
<path d="M3031 727 c2 -2 11 -8 20 -15 12 -9 16 -9 16 1 0 7 -9 14 -20 14 -11
1 -18 1 -16 0z"/>
<path d="M3119 713 c-13 -16 -12 -17 4 -4 16 13 21 21 13 21 -2 0 -10 -8 -17
-17z"/>
<path d="M3150 719 c0 -5 5 -7 10 -4 6 3 10 8 10 11 0 2 -4 4 -10 4 -5 0 -10
-5 -10 -11z"/>
<path d="M1835 709 c-4 -6 -5 -12 -2 -15 2 -3 7 2 10 11 7 17 1 20 -8 4z"/>
<path d="M2947 707 c-3 -8 0 -14 7 -14 7 0 13 6 13 14 0 7 -4 13 -8 13 -4 0
-9 -6 -12 -13z"/>
<path d="M1986 698 c3 -4 9 -8 15 -8 5 0 9 4 9 8 0 5 -7 9 -15 9 -8 0 -12 -4
-9 -9z"/>
<path d="M2796 695 c-9 -26 -7 -32 5 -12 6 10 9 21 6 23 -2 3 -7 -2 -11 -11z"/>
<path d="M2069 683 c-13 -16 -12 -17 4 -4 16 13 21 21 13 21 -2 0 -10 -8 -17
-17z"/>
<path d="M2342 687 c14 -11 15 -16 5 -27 -10 -12 -9 -12 5 -1 9 7 22 10 28 6
5 -3 10 -4 10 -1 0 3 -15 13 -32 21 -23 11 -28 12 -16 2z"/>
<path d="M2170 679 c0 -5 5 -7 10 -4 6 3 10 8 10 11 0 2 -4 4 -10 4 -5 0 -10
-5 -10 -11z"/>
<path d="M2424 678 c-5 -7 -3 -8 6 -3 9 6 12 4 8 -7 -4 -8 0 -15 7 -15 10 0
11 5 4 19 -11 21 -15 22 -25 6z"/>
<path d="M2523 678 c-10 -17 -12 -59 -2 -52 4 2 6 13 4 24 -2 11 4 24 13 30 9
5 12 10 5 10 -6 0 -15 -6 -20 -12z"/>
<path d="M2669 666 c-9 -19 -9 -19 4 -4 9 12 17 14 24 7 6 -6 10 -5 10 4 0 21
-27 16 -38 -7z"/>
<path d="M3310 686 c0 -2 7 -7 16 -10 8 -3 12 -2 9 4 -6 10 -25 14 -25 6z"/>
<path d="M2480 660 c-9 -6 -10 -10 -3 -10 6 0 15 5 18 10 8 12 4 12 -15 0z"/>
<path d="M2569 643 c-13 -16 -12 -17 4 -4 16 13 21 21 13 21 -2 0 -10 -8 -17
-17z"/>
<path d="M2793 645 c0 -8 4 -12 9 -9 5 3 6 10 3 15 -9 13 -12 11 -12 -6z"/>
<path d="M2595 641 c-3 -5 -2 -12 3 -15 5 -3 9 1 9 9 0 17 -3 19 -12 6z"/>
<path d="M2759 633 c-13 -16 -12 -17 4 -4 9 7 17 15 17 17 0 8 -8 3 -21 -13z"/>
<path d="M2919 633 c-13 -16 -12 -17 4 -4 16 13 21 21 13 21 -2 0 -10 -8 -17
-17z"/>
<path d="M3190 646 c0 -2 7 -7 16 -10 8 -3 12 -2 9 4 -6 10 -25 14 -25 6z"/>
<path d="M2667 619 c7 -7 15 -10 18 -7 3 3 -2 9 -12 12 -14 6 -15 5 -6 -5z"/>
<path d="M2830 606 c0 -2 7 -7 16 -10 8 -3 12 -2 9 4 -6 10 -25 14 -25 6z"/>
<path d="M2430 579 c0 -5 5 -7 10 -4 6 3 10 8 10 11 0 2 -4 4 -10 4 -5 0 -10
-5 -10 -11z"/>
<path d="M2576 582 c-2 -4 -1 -14 4 -22 7 -11 9 -9 7 8 -1 24 -3 26 -11 14z"/>
<path d="M2275 560 c-3 -5 -1 -10 4 -10 6 0 11 5 11 10 0 6 -2 10 -4 10 -3 0
-8 -4 -11 -10z"/>
<path d="M2473 515 c0 -8 4 -12 9 -9 5 3 6 10 3 15 -9 13 -12 11 -12 -6z"/>
</g>
</svg>
